<svg width="15" height="16" viewBox="0 0 15 16" fill="none" xmlns="http://www.w3.org/2000/svg">
<path d="M2 8.32107C4.1875 7.07107 7 7.07107 8.25 9.57107C8.77883 9.30107 9.36858 9.17266 9.96179 9.19835C10.555 9.22404 11.1314 9.40294 11.635 9.71764C12.1385 10.0323 12.5519 10.4721 12.8349 10.9941C13.118 11.516 13.261 12.1024 13.25 12.6961" stroke="#64748B" style="stroke:#64748B;stroke:color(display-p3 0.3922 0.4549 0.5451);stroke-opacity:1;" stroke-linecap="round" stroke-linejoin="round"/>
<path d="M3.21875 11.6812C6.66875 10.7312 8.625 7.375 7.59375 4.18125C7.21875 3 7.1875 1.75 8.125 1.75C10.1375 1.75 11.25 5.1875 11.25 6.75C11.25 10.8125 8.625 14.25 4.69375 14.25C3.19375 14.25 1.25 14.25 1.25 13C1.25 12.0625 1.9625 12.0312 3.21875 11.6812Z" stroke="#64748B" style="stroke:#64748B;stroke:color(display-p3 0.3922 0.4549 0.5451);stroke-opacity:1;" stroke-linecap="round" stroke-linejoin="round"/>
</svg>
